# xmcd
#
# Track frame offsets:
#	150
#	6485
#	18120
#	33357
#	46487
#	51880
#	62025
#	65695
#	73302
#	87285
#	92815
#	97787
#	102937
#	109522
#	120037
#
# Disc length: 1743 seconds
#
# Revision: 0
# Processed by: cddbd v1.5.1PL0 Copyright (c) Steve Scherf et al.
# Submitted via: dBpowerAMP V4.0
#
DISCID=bd06cd0f
DTITLE=Tammy Wynette - The Best Of
DYEAR=1900
DGENRE=Country
TTITLE0=Welcome  To My World
TTITLE1=D.I.V.O.R.C.E
TTITLE2=Til I Can Make It On My Own
TTITLE3=Stand By Your Man
TTITLE4=Singing My Song
TTITLE5=Another Chance
TTITLE6=Will The Circle Be Unbroken
TTITLE7=When The Grass Grows Over Me
TTITLE8=Cryin' In The Rain
TTITLE9=I'll Fly Away
TTITLE10=Your Good Girl's Gonna Go Bad
TTITLE11=I Saw The Light
TTITLE12=Amazing Grace
TTITLE13=Womanhood
TTITLE14=Fairy Tales
EXTD=
EXTT0=
EXTT1=
EXTT2=
EXTT3=
EXTT4=
EXTT5=
EXTT6=
EXTT7=
EXTT8=
EXTT9=
EXTT10=
EXTT11=
EXTT12=
EXTT13=
EXTT14=
PLAYORDER=
